<?xml version="1.0" encoding="utf-8"?>
<svg version="1.1" xmlns:xlink="http://www.w3.org/1999/xlink" width="36px" height="38px" xmlns="http://www.w3.org/2000/svg">
  <g transform="matrix(1 0 0 1 -559 -2722 )">
    <path d="M 8.833333333333334 9.666666666666668  C 8.833333333333334 14.814  13.019333333333336 19  18.166666666666668 19  C 23.314 19  27.500000000000004 14.814  27.500000000000004 9.666666666666668  C 27.500000000000004 4.519333333333336  23.314 0.3333333333333339  18.166666666666668 0.3333333333333339  C 13.019333333333336 0.3333333333333339  8.833333333333334 4.519333333333336  8.833333333333334 9.666666666666668  Z M 13.5 9.666666666666668  C 13.5 7.093  15.593000000000004 5  18.166666666666668 5  C 20.740333333333336 5  22.833333333333336 7.093  22.833333333333336 9.666666666666668  C 22.833333333333336 12.240333333333336  20.740333333333336 14.333333333333336  18.166666666666668 14.333333333333336  C 15.593000000000004 14.333333333333336  13.5 12.240333333333336  13.5 9.666666666666668  Z M 35.66666666666667 35.333333333333336  C 35.66666666666667 27.612333333333332  29.387666666666668 21.333333333333336  21.666666666666668 21.333333333333336  L 14.666666666666668 21.333333333333336  C 6.945666666666668 21.333333333333336  0.666666666666667 27.612333333333332  0.666666666666667 35.333333333333336  L 0.666666666666667 37.66666666666667  L 5.333333333333334 37.66666666666667  L 5.333333333333334 35.333333333333336  C 5.333333333333334 30.186000000000007  9.519333333333336 26  14.666666666666668 26  L 21.666666666666668 26  C 26.814 26  31 30.186000000000007  31 35.333333333333336  L 31 37.66666666666667  L 35.66666666666667 37.66666666666667  L 35.66666666666667 35.333333333333336  Z " fill-rule="nonzero" fill="#eff2f7" stroke="none" transform="matrix(1 0 0 1 559 2722 )" />
  </g>
</svg>